PathFileType	4	(X/Y/Z)	C:\Users\Basilio\Documents\Thesis Gigler\squatting_fais\c3dfiles\038\SLS_back_pre2\markers_experimental.trc
DataRate	CameraRate	NumFrames	NumMarkers	Units	OrigDataRate	OrigDataStartFrame	OrigNumFrames
200.000000	200.000000	4	63	mm	200.000000	671	1791
Frame#	Time	FHD			LBHD			RBHD			C7			T10			CLAV			LSHO			LUUPA			LMUPA			LDUPA			LLEP			LMEP			LRAD			LUL			LRFIN			RSHO			RUPA1			RMUPA			RDUPA			RLEP			RMEP			RRAD			RUL			RUFIN			LASI			RASI			USACR			LSACR			RSACR			LTHI1			LTHI2			LTHI3			LTHI4			LLFC			LMFC			LTIB1			LTIB2			LTIB3			LTIB4			LLMAL			LMMAL			LHEE			LMT1			LMT2			LMT5			RTHI			RTHI2			RTHI3			RTHI4			RLFC			RMFC			RTIB1			RTIB2			RTIB3			RTIB4			RLMAL			RMMAL			RHEE			RMT1			RMT2			RMT5			*61			*62			
		X1	Y1	Z1	X2	Y2	Z2	X3	Y3	Z3	X4	Y4	Z4	X5	Y5	Z5	X6	Y6	Z6	X7	Y7	Z7	X8	Y8	Z8	X9	Y9	Z9	X10	Y10	Z10	X11	Y11	Z11	X12	Y12	Z12	X13	Y13	Z13	X14	Y14	Z14	X15	Y15	Z15	X16	Y16	Z16	X17	Y17	Z17	X18	Y18	Z18	X19	Y19	Z19	X20	Y20	Z20	X21	Y21	Z21	X22	Y22	Z22	X23	Y23	Z23	X24	Y24	Z24	X25	Y25	Z25	X26	Y26	Z26	X27	Y27	Z27	X28	Y28	Z28	X29	Y29	Z29	X30	Y30	Z30	X31	Y31	Z31	X32	Y32	Z32	X33	Y33	Z33	X34	Y34	Z34	X35	Y35	Z35	X36	Y36	Z36	X37	Y37	Z37	X38	Y38	Z38	X39	Y39	Z39	X40	Y40	Z40	X41	Y41	Z41	X42	Y42	Z42	X43	Y43	Z43	X44	Y44	Z44	X45	Y45	Z45	X46	Y46	Z46	X47	Y47	Z47	X48	Y48	Z48	X49	Y49	Z49	X50	Y50	Z50	X51	Y51	Z51	X52	Y52	Z52	X53	Y53	Z53	X54	Y54	Z54	X55	Y55	Z55	X56	Y56	Z56	X57	Y57	Z57	X58	Y58	Z58	X59	Y59	Z59	X60	Y60	Z60	X61	Y61	Z61	X62	Y62	Z62	X63	Y63	Z63	

672	3.355	-166.5899963378907	1715.122436523438	-1084.893798828125	-323.3880920410157	1668.98046875	-1144.290283203125	-315.3899841308594	1658.044555664063	-999.7749023437502	-378.5696716308594	1495.217529296875	-1065.094116210938	-391.4772033691407	1215.561279296875	-1033.891723632813	-236.3368225097657	1468.900390625	-1081.566650390625	-313.1921386718751	1512.859130859375	-1213.412963867188	-157.4917602539063	1454.647705078125	-1351.631225585938	-128.9249267578125	1488.427612304688	-1326.52978515625	-89.10526275634767	1462.436401367188	-1363.04052734375	-27.08916664123536	1465.0166015625	-1367.779174804688	-15.53723239898682	1391.514404296875	-1343.92333984375	264.1653137207032	1464.109619140625	-1278.746337890625	268.5273742675782	1479.326538085938	-1350.694702148438	332.9344787597657	1504.903564453125	-1266.000732421875	-281.4972839355469	1514.052368164063	-942.8211059570315	-123.302963256836	1508.763061523438	-828.299255371094	-89.99084472656251	1517.097900390625	-862.9749755859377	-54.9160842895508	1509.485595703125	-813.6572265625002	18.43689346313477	1512.4990234375	-805.898376464844	29.99510192871094	1434.016235351563	-818.9241333007815	291.9130249023438	1528.786865234375	-898.4239501953127	303.8435668945313	1543.544189453125	-830.8074951171877	366.5405273437501	1571.625	-906.5349731445315	-228.5082397460938	1010.294738769531	-1127.387939453125	-245.2244262695313	1040.049926757813	-879.6289672851565	-403.8599548339845	1079.1884765625	-1018.748474121094	-416.5306396484376	1048.09033203125	-1045.5224609375	-418.8804931640626	1053.0947265625	-988.2419433593752	-218.9228210449219	698.6138305664064	-1172.683837890625	-174.9886322021485	625.7551269531251	-1162.650024414063	-131.4082946777344	639.6079101562501	-1140.287231445313	-194.715560913086	572.9382324218751	-1143.603393554688	-187.065170288086	514.7130737304689	-1131.508544921875	-176.9952850341797	516.9614868164064	-1014.407653808594	-198.8779907226563	334.1538696289063	-1038.728271484375	-253.447982788086	299.6719665527344	-1099.727294921875	-221.5344848632813	287.9915161132813	-1069.526977539063	-257.6039733886719	220.8909759521485	-1030.776611328125	-378.2286682128907	119.0700607299805	-1039.864624023438	-335.3206787109376	134.6532135009766	-968.805358886719	-432.7178649902345	101.6569976806641	-981.7471313476565	-233.7587127685547	47.55846023559571	-976.3133544921877	-226.2216033935547	44.55222702026368	-1026.621948242188	-271.7457885742188	33.62453842163087	-1073.378295898438	-297.9786682128907	772.569763183594	-796.7197875976565	-262.8713378906251	716.5170898437501	-783.6850585937502	-229.9263000488282	716.1353759765626	-786.6582641601565	-293.2492370605469	635.9753417968751	-787.8137207031252	-296.7332763671876	526.2759399414064	-791.6971435546877	-288.4813537597657	510.4564514160157	-903.3127441406252	-407.0438842773439	391.6644897460939	-812.7019653320315	-518.5872802734376	420.1995849609376	-799.5345458984377	-491.1613159179689	381.5898132324219	-798.591003417969	-524.6445922851564	342.1254882812501	-829.3031005859377	-661.8121337890626	339.3681335449219	-820.2156982421877	-630.0083618164064	304.5568237304688	-890.6215820312502	-699.6984252929689	373.1044006347657	-900.5141601562502	-668.0902709960939	163.7175903320313	-857.750915527344	-678.4448852539064	169.7577514648438	-811.9210205078127	-717.7218627929689	210.4876556396485	-783.1460571289065	nan	nan	nan	nan	nan	nan	
673	3.36	-166.8372650146485	1714.230224609375	-1084.717407226563	-323.4391479492188	1668.146118164063	-1144.331176757813	-315.4078674316407	1657.4638671875	-999.7913818359377	-378.7756652832032	1494.581909179688	-1065.124755859375	-391.6273498535157	1214.953857421875	-1033.876586914063	-236.3269958496094	1468.15283203125	-1081.51708984375	-313.2458496093751	1512.237182617188	-1213.379760742188	-157.5457916259766	1454.029052734375	-1351.582885742188	-129.0093994140625	1487.663452148438	-1326.320922851563	-89.11305999755861	1461.913452148438	-1362.998291015625	-27.16934776306153	1464.397338867188	-1367.517456054688	-15.54780101776123	1390.830444335938	-1343.8251953125	264.1253051757813	1463.806884765625	-1278.718994140625	268.4834594726563	1478.665893554688	-1350.403076171875	332.9353942871094	1504.271484375	-1265.76708984375	-281.6768188476563	1513.323364257813	-942.8371582031252	-123.5842514038086	1508.310180664063	-828.3948974609377	-90.03221893310548	1516.426513671875	-862.8606567382815	-55.10177612304689	1508.921508789063	-813.6005859375002	18.20837783813477	1511.727416992188	-805.910095214844	29.85412216186524	1433.3671875	-818.8780517578127	291.6330566406251	1527.273681640625	-898.531921386719	303.7231445312501	1542.9931640625	-830.9566040039065	366.3622741699219	1570.8212890625	-906.6927490234377	-228.7011871337891	1009.388122558594	-1127.328491210938	-245.4675750732422	1039.498901367188	-879.5171508789065	-404.074188232422	1078.572631835938	-1018.710571289063	-416.3151245117189	1047.589111328125	-1045.253540039063	-419.0814819335939	1052.518920898438	-988.2067871093752	-218.7273101806641	698.0220336914064	-1172.670654296875	-174.628173828125	625.2481689453126	-1162.667358398438	-131.0995483398438	639.1874389648439	-1140.401000976563	-193.7728424072266	572.1153564453126	-1143.654663085938	-186.2723693847657	514.3890380859376	-1131.453491210938	-176.4694976806641	516.4805908203126	-1014.41455078125	-198.6294555664063	333.6748352050782	-1038.494873046875	-253.532943725586	298.7358703613282	-1099.620361328125	-221.3621215820313	287.4567260742188	-1069.595336914063	-257.4446716308594	220.6387786865235	-1030.719604492188	-378.2854919433594	118.9209442138672	-1039.747802734375	-335.3383483886719	134.5573120117188	-968.6829833984377	-432.7383422851564	101.5559158325196	-981.707214355469	-233.7697143554688	47.57833862304688	-976.3147583007815	-226.0709838867188	44.72436141967774	-1026.610473632813	-271.7345886230469	33.64669418334962	-1073.388549804688	-298.3283386230469	771.9646606445315	-796.6293945312502	-263.0156250000001	715.0886230468751	-783.3686523437502	-230.1136474609376	715.7665405273439	-786.449401855469	-293.9024963378907	635.3771972656251	-787.0722656250002	-297.2716369628907	525.4992675781251	-791.7124633789065	-288.5919494628907	509.8801269531251	-903.141052246094	-407.3255310058595	391.1224365234376	-812.524597167969	-519.0131835937501	419.6224670410157	-799.4441528320315	-491.6238098144532	380.8417053222657	-798.5090332031252	-525.0433349609376	341.4489746093751	-829.3609008789065	-662.2043457031251	339.0476379394532	-820.2788696289065	-630.3916625976564	304.0386962890626	-890.603942871094	-700.0650634765626	372.6014404296876	-900.4124755859377	-668.6030883789064	163.1534118652344	-857.6419677734377	-678.8597412109376	169.2285919189453	-812.0037231445315	-718.0658569335939	209.6955261230469	-783.242858886719	nan	nan	nan	nan	nan	nan	
674	3.365	-166.8277893066407	1713.839111328125	-1084.97412109375	-323.5006408691407	1667.374389648438	-1144.267211914063	-315.4451293945313	1656.666137695313	-999.780700683594	-378.8630676269532	1494.072143554688	-1065.146240234375	-391.7956848144532	1214.254028320313	-1033.799560546875	-236.2969818115235	1467.498779296875	-1081.485961914063	-313.0380859375001	1511.630126953125	-1213.372802734375	-157.5435485839844	1453.44140625	-1351.515380859375	-129.1444244384766	1486.792236328125	-1326.263305664063	-89.07299804687501	1461.381713867188	-1362.919677734375	-27.51514053344727	1464.032836914063	-1367.542236328125	-15.5627088546753	1390.286010742188	-1343.834594726563	263.9986572265626	1463.499389648438	-1278.285522460938	268.4982910156251	1478.104736328125	-1350.209594726563	332.9399414062501	1503.733764648438	-1265.577514648438	-281.8619689941407	1512.5537109375	-942.832702636719	-123.9503555297852	1508.161865234375	-828.3447265625002	-90.22503662109376	1516.363525390625	-862.8125000000002	-55.2661476135254	1508.185791015625	-813.6798095703127	18.06983375549317	1510.975463867188	-805.8258056640627	29.63694190979005	1432.646728515625	-818.757507324219	291.5646972656251	1527.360473632813	-898.5935058593752	303.7441711425782	1542.19091796875	-831.1069946289065	366.2154846191407	1570.206787109375	-906.7713012695315	-228.9729003906251	1008.596130371094	-1127.074951171875	-245.8593139648438	1038.769653320313	-879.4168701171877	-404.2815246582032	1077.877685546875	-1018.626037597656	-416.6317749023439	1046.747436523438	-1045.244384765625	-419.438690185547	1051.838623046875	-988.1307373046877	-218.5343170166016	697.5006713867189	-1172.66357421875	-174.2695770263672	624.7015991210939	-1162.723999023438	-130.7329406738282	638.6931152343751	-1140.39404296875	-193.3909149169922	571.5367431640626	-1143.60546875	-185.7555389404297	513.8400268554689	-1131.448364257813	-175.5512847900391	515.8832397460939	-1014.588806152344	-198.4227752685547	333.1219482421876	-1038.4306640625	-253.3301849365235	298.2475280761719	-1099.444580078125	-220.8941955566407	287.6167602539063	-1069.397216796875	-257.3715515136719	220.3233947753907	-1030.623413085938	-378.3134765625001	118.8246994018555	-1039.603271484375	-335.3092956542969	134.3452758789063	-968.5747680664065	-432.7538452148439	101.440055847168	-981.704040527344	-233.7634277343751	47.49561309814454	-976.3370361328127	-226.0400085449219	44.78037261962891	-1026.573120117188	-271.7533569335938	33.61753845214844	-1073.376953125	-298.6427001953126	771.2658691406252	-796.4842529296877	-263.4901428222657	714.7445068359376	-783.183288574219	-230.4792175292969	714.8862304687501	-786.404724121094	-294.2010498046876	634.4810180664064	-786.8409423828127	-297.7052307128907	524.9127197265626	-791.593200683594	-288.8361206054688	509.3677062988282	-902.881286621094	-407.855682373047	390.4565734863282	-812.4500732421877	-519.4632568359376	419.090301513672	-799.386657714844	-492.0432739257814	380.3715515136719	-798.379333496094	-525.4204101562501	341.0187072753907	-829.1928710937502	-662.7147827148439	338.5203247070313	-820.188903808594	-630.8480224609376	303.4116821289063	-890.455749511719	-700.4860839843751	372.1138610839844	-900.4020996093752	-669.1525268554689	162.6709899902344	-857.6849365234377	-679.3829956054689	168.6694488525391	-812.065612792969	-718.7514648437501	208.8983154296876	-783.4485473632815	nan	nan	nan	nan	nan	nan	
675	3.37	-166.7896270751953	1713.21044921875	-1085.11669921875	-323.3921813964844	1667.046020507813	-1144.244262695313	-315.5633239746094	1655.942138671875	-999.8838500976565	-378.8734130859376	1493.212036132813	-1065.106201171875	-391.9119567871095	1213.5546875	-1033.810546875	-236.4774780273438	1466.715942382813	-1081.396728515625	-313.0603942871094	1510.883911132813	-1213.234008789063	-157.5162658691407	1452.800170898438	-1351.42919921875	-129.1025848388672	1486.243408203125	-1326.214721679688	-89.11266326904298	1460.685180664063	-1362.921020507813	-27.51885414123536	1463.404296875	-1367.557983398438	-15.4872055053711	1389.71337890625	-1343.795654296875	263.9170227050782	1462.596069335938	-1278.177856445313	268.4257507324219	1477.623657226563	-1350.058837890625	332.9856262207032	1503.10693359375	-1265.340576171875	-281.8657836914063	1511.89501953125	-942.6751708984377	-123.9423599243164	1507.197265625	-828.1735839843752	-90.61721801757814	1515.660522460938	-862.975280761719	-55.30950164794923	1507.402221679688	-813.7000122070315	17.94644737243653	1510.39697265625	-805.786560058594	29.55250358581544	1432.068359375	-818.6663208007815	291.3733520507813	1526.248901367188	-898.6528320312502	303.5287475585938	1541.44775390625	-831.2764282226565	366.0402832031251	1569.52099609375	-906.8311157226565	-229.303695678711	1008.007629394531	-1126.993530273438	-246.1812286376954	1037.999877929688	-879.4008789062502	-404.3925170898439	1077.439575195313	-1018.627075195313	-416.8377990722657	1045.960693359375	-1045.185180664063	-419.4983520507814	1051.070922851563	-988.039733886719	-218.3858642578126	696.9597778320314	-1172.63916015625	-173.9891662597657	624.0691528320314	-1162.83740234375	-130.4202575683594	638.2471923828126	-1140.427124023438	-192.9683532714844	570.9659423828126	-1143.517822265625	-185.3289794921875	513.3552246093751	-1131.468383789063	-175.14501953125	515.3539428710939	-1014.729553222656	-198.154281616211	332.6116638183594	-1038.336669921875	-253.0071563720704	297.8782958984376	-1099.49365234375	-220.4123687744141	286.3492431640626	-1069.143676757813	-257.2587280273438	219.965560913086	-1030.452758789063	-378.2966308593751	118.7774124145508	-1039.535400390625	-335.8579711914063	133.8922729492188	-968.809997558594	-432.7761840820314	101.4024810791016	-981.796325683594	-233.7607574462891	47.48043441772462	-976.3344726562502	-226.2410888671876	44.46914672851563	-1026.6220703125	-271.7770385742188	33.64192962646485	-1073.38427734375	-298.9986267089844	770.5672607421877	-796.358581542969	-263.8842773437501	714.0585327148439	-782.947204589844	-230.7226104736329	714.1054077148439	-786.0979003906252	-294.3082580566407	633.7936401367189	-787.063659667969	-297.9938659667969	524.1613769531251	-791.3441162109377	-289.2513732910157	508.606414794922	-902.7715454101565	-408.2770996093751	389.6812744140626	-812.2207031250002	-519.9365844726564	418.4970703125001	-799.2173461914065	-492.4894409179689	379.8808898925782	-798.0810546875002	-525.8970336914064	340.5550231933594	-828.8802490234377	-663.1112670898439	337.9724121093751	-820.043640136719	-631.1362915039064	302.9217834472657	-890.4670410156252	-700.8062744140626	371.6624755859376	-900.3809204101565	-669.6719970703126	162.056381225586	-857.7392578125002	-680.0828247070314	168.2614288330078	-812.2078247070315	-719.3176269531251	208.320785522461	-783.4989013671877	nan	nan	nan	nan	nan	nan	
